<svg width="20.000000" height="20.000000" viewBox="0 0 20 20" fill="none" xmlns="http://www.w3.org/2000/svg" xmlns:xlink="http://www.w3.org/1999/xlink">
	<desc>
			Created with Pixso.
	</desc>
	<defs/>
	<path d="M0.53 0.55C-0.21 1.29 -0.21 2.48 0.53 3.22L7.31 10L0.53 16.77C-0.21 17.51 -0.21 18.7 0.53 19.44C1.27 20.18 2.47 20.18 3.2 19.44L9.98 12.67L16.76 19.44C17.49 20.18 18.69 20.18 19.43 19.44C20.17 18.7 20.17 17.51 19.43 16.77L12.65 10L19.43 3.22C20.17 2.48 20.17 1.29 19.43 0.55C18.69 -0.19 17.49 -0.19 16.76 0.55L9.98 7.32L3.2 0.55C2.47 -0.19 1.27 -0.19 0.53 0.55Z" fill="#754E29" fill-opacity="1.000000" fill-rule="nonzero"/>
</svg>
