<svg width="22.000000" height="22.000000" viewBox="-0.7 0 22 22" fill="none" xmlns="http://www.w3.org/2000/svg" xmlns:xlink="http://www.w3.org/1999/xlink">
	<desc>
			Created with Pixso.
	</desc>
	<defs/>
	<rect id="icon" width="22.000000" height="22.000000" transform="translate(-0.857910 0.000000)" fill="#FFFFFF" fill-opacity="0"/>
	<path id="icon" d="M18.14 0C19.79 0 21.14 1.34 21.14 3L21.14 19C21.14 20.65 19.79 22 18.14 22L2.14 22C0.48 22 -0.86 20.65 -0.86 19L-0.86 3C-0.86 1.34 0.48 0 2.14 0L18.14 0ZM18.14 2C18.69 2 19.14 2.44 19.14 3L19.14 19C19.14 19.55 18.69 20 18.14 20L13.14 20L13.14 13L15.21 13C15.64 13 16.03 12.72 16.16 12.31L16.6 10.98C16.77 10.5 16.41 10 15.89 10L13.14 10L13.14 8C13.14 7.5 13.64 7 14.14 7L16.14 7C16.69 7 17.14 6.55 17.14 6L17.14 5.31C17.14 4.99 16.93 4.7 16.62 4.61C15.31 4.27 14.14 4.27 14.14 4.27C11.64 4.27 10.14 6 10.14 7.5L10.14 10L8.14 10C7.58 10 7.14 10.44 7.14 11L7.14 12C7.14 12.55 7.58 13 8.14 13L10.14 13L10.14 20L2.14 20C1.58 20 1.14 19.55 1.14 19L1.14 3C1.14 2.44 1.58 2 2.14 2L18.14 2Z" fill="#151618" fill-opacity="1.000000" fill-rule="evenodd"/>
</svg>
