<svg width="31.000000" height="10.000000" viewBox="-1 0 31 10" fill="none" xmlns="http://www.w3.org/2000/svg" xmlns:xlink="http://www.w3.org/1999/xlink">
	<desc>
			Created with Pixso.
	</desc>
	<defs>
		<linearGradient id="paint_linear_2_955_0" x1="1424.218750" y1="30.059174" x2="1700.211182" y2="-990.000916" gradientUnits="userSpaceOnUse">
			<stop stop-color="#222357"/>
			<stop offset="1.000000" stop-color="#254AA5"/>
		</linearGradient>
	</defs>
	<path id="Vector" d="M15.06 3.19C15.04 4.58 16.3 5.36 17.25 5.82C18.22 6.3 18.55 6.6 18.55 7.03C18.54 7.68 17.77 7.96 17.05 7.97C15.79 7.99 15.06 7.63 14.48 7.36L14.02 9.48C14.61 9.75 15.69 9.98 16.81 10C19.44 10 21.16 8.7 21.17 6.69C21.18 4.13 17.63 3.99 17.66 2.85C17.67 2.51 18 2.14 18.72 2.04C19.08 2 20.07 1.96 21.19 2.47L21.63 0.42C21.03 0.21 20.25 0 19.29 0C16.81 0 15.07 1.31 15.06 3.19ZM25.86 0.17C25.38 0.17 24.98 0.45 24.8 0.88L21.04 9.84L23.67 9.84L24.19 8.4L27.4 8.4L27.71 9.84L30.02 9.84L28 0.17L25.86 0.17ZM26.23 2.78L26.99 6.42L24.91 6.42L26.23 2.78ZM11.87 0.17L9.8 9.84L12.3 9.84L14.37 0.17L11.87 0.17ZM8.16 0.17L5.56 6.76L4.5 1.16C4.38 0.53 3.89 0.17 3.35 0.17L-0.92 0.17L-0.98 0.45C-0.1 0.64 0.89 0.95 1.5 1.28C1.86 1.48 1.97 1.65 2.09 2.13L4.09 9.84L6.74 9.84L10.79 0.17L8.16 0.17Z" fill="url(#paint_linear_2_955_0)" fill-opacity="1.000000" fill-rule="nonzero"/>
</svg>
