<svg width="24.000000" height="18.000000" viewBox="-0.7 0 24 18" fill="none" xmlns="http://www.w3.org/2000/svg" xmlns:xlink="http://www.w3.org/1999/xlink">
	<desc>
			Created with Pixso.
	</desc>
	<defs/>
	<rect id="icon" width="24.000000" height="18.000000" transform="translate(-0.857910 0.000000)" fill="#FFFFFF" fill-opacity="0"/>
	<path id="icon" d="M0.09 2.06C-0.86 3.37 -0.86 5.25 -0.86 9C-0.86 12.74 -0.86 14.62 0.09 15.93C0.4 16.36 0.77 16.73 1.2 17.04C2.51 18 4.39 18 8.14 18L14.14 18C17.89 18 19.76 18 21.08 17.04C21.5 16.73 21.87 16.36 22.18 15.93C23.14 14.62 23.14 12.74 23.14 9C23.14 5.25 23.14 3.37 22.18 2.06C21.87 1.63 21.5 1.26 21.08 0.95C19.76 0 17.89 0 14.14 0L8.14 0C4.39 0 2.51 0 1.2 0.95C0.77 1.26 0.4 1.63 0.09 2.06ZM14.14 2L8.14 2C6.22 2 4.94 2 3.97 2.1C3.04 2.2 2.63 2.38 2.37 2.57C2.12 2.75 1.89 2.98 1.71 3.23C1.52 3.49 1.35 3.9 1.25 4.83C1.14 5.8 1.14 7.08 1.14 9C1.14 10.91 1.14 12.19 1.25 13.16C1.35 14.09 1.52 14.5 1.71 14.76C1.89 15.01 2.12 15.24 2.37 15.42C2.63 15.61 3.04 15.79 3.97 15.89C4.94 15.99 6.22 16 8.14 16L14.14 16C16.06 16 17.34 15.99 18.3 15.89C19.24 15.79 19.64 15.61 19.9 15.42C20.16 15.24 20.38 15.01 20.56 14.76C20.75 14.5 20.93 14.09 21.03 13.16C21.13 12.19 21.14 10.91 21.14 9C21.14 7.08 21.13 5.8 21.03 4.83C20.93 3.9 20.75 3.49 20.56 3.23C20.38 2.98 20.16 2.75 19.9 2.57C19.64 2.38 19.24 2.2 18.3 2.1C17.34 2 16.06 2 14.14 2ZM7.64 4.13C7.94 3.95 8.32 3.95 8.63 4.13L15.63 8.13C15.94 8.3 16.14 8.64 16.14 9C16.14 9.35 15.94 9.69 15.63 9.86L8.63 13.86C8.32 14.04 7.94 14.04 7.64 13.86C7.33 13.68 7.14 13.35 7.14 13L7.14 5C7.14 4.64 7.33 4.31 7.64 4.13ZM9.14 11.27L13.12 9L9.14 6.72L9.14 11.27Z" fill="#0F0F0F" fill-opacity="1.000000" fill-rule="evenodd"/>
</svg>
