<svg width="29.000000" height="12.000000" viewBox="-1 0 29 12" fill="none" xmlns="http://www.w3.org/2000/svg" xmlns:xlink="http://www.w3.org/1999/xlink">
	<desc>
			Created with Pixso.
	</desc>
	<defs>
		<clipPath id="clip2_956">
			<rect id="logos:google-pay" width="29.000000" height="12.000000" transform="translate(-0.971191 0.000000)" fill="white" fill-opacity="0"/>
		</clipPath>
	</defs>
	<rect id="logos:google-pay" width="29.000000" height="12.000000" transform="translate(-0.971191 0.000000)" fill="#FFFFFF" fill-opacity="0"/>
	<g clip-path="url(#clip2_956)">
		<path id="Vector" d="M19.58 3.23C20.38 3.23 20.99 3.46 21.46 3.91C21.94 4.36 22.15 4.96 22.15 5.72L22.15 9.33L21.14 9.33L21.14 8.5L21.1 8.5C20.67 9.18 20.05 9.52 19.33 9.52C18.71 9.52 18.17 9.33 17.73 8.95C17.33 8.58 17.08 8.05 17.08 7.49C17.08 6.88 17.3 6.39 17.73 6.02C18.17 5.64 18.78 5.49 19.51 5.49C20.16 5.49 20.67 5.6 21.07 5.87L21.07 5.6C21.07 5.25 20.94 4.9 20.69 4.67L20.63 4.63C20.34 4.36 19.98 4.21 19.58 4.21C18.96 4.21 18.49 4.48 18.17 5L17.22 4.4C17.8 3.61 18.57 3.23 19.58 3.23ZM14.47 0.67C15.12 0.67 15.74 0.91 16.23 1.35L16.32 1.43C16.83 1.88 17.08 2.56 17.08 3.27C17.08 3.99 16.83 4.63 16.32 5.12C15.81 5.6 15.2 5.87 14.47 5.87L12.73 5.83L12.73 9.33L11.64 9.33L11.64 0.67L14.47 0.67ZM19.73 6.39C19.29 6.39 18.93 6.51 18.64 6.73C18.35 6.92 18.2 7.19 18.2 7.52C18.2 7.83 18.35 8.09 18.57 8.24C18.82 8.43 19.11 8.54 19.4 8.54C19.81 8.54 20.21 8.38 20.53 8.08L20.6 8.01C20.96 7.67 21.14 7.26 21.14 6.81C20.81 6.55 20.34 6.39 19.73 6.39L19.73 6.39ZM14.54 1.73L12.73 1.73L12.73 4.74L14.54 4.74C14.94 4.74 15.34 4.59 15.59 4.29C16.17 3.72 16.17 2.78 15.63 2.22L15.59 2.18C15.3 1.88 14.94 1.69 14.54 1.73L14.54 1.73ZM28.02 3.42L24.44 11.96L23.35 11.96L24.69 8.99L22.33 3.46L23.49 3.46L25.2 7.71L25.23 7.71L26.9 3.46L28.02 3.46L28.02 3.42Z" fill="#5F6368" fill-opacity="1.000000" fill-rule="nonzero"/>
		<path id="Vector" d="M8.42 5.08C8.42 4.74 8.38 4.4 8.35 4.06L3.82 4.06L3.82 5.98L6.39 5.98C6.28 6.58 5.95 7.15 5.45 7.49L5.45 8.73L7.01 8.73C7.91 7.86 8.42 6.58 8.42 5.08L8.42 5.08Z" fill="#4285F4" fill-opacity="1.000000" fill-rule="nonzero"/>
		<path id="Vector" d="M3.82 9.93C5.12 9.93 6.21 9.48 7.01 8.73L5.45 7.49C5.01 7.79 4.47 7.98 3.82 7.98C2.58 7.98 1.5 7.11 1.13 5.91L-0.46 5.91L-0.46 7.19C0.37 8.88 2 9.93 3.82 9.93Z" fill="#34A853" fill-opacity="1.000000" fill-rule="nonzero"/>
		<path id="Vector" d="M1.13 5.91C0.92 5.3 0.92 4.63 1.13 3.99L1.13 2.71L-0.46 2.71C-1.15 4.1 -1.15 5.76 -0.46 7.19L1.13 5.91Z" fill="#FBBC04" fill-opacity="1.000000" fill-rule="nonzero"/>
		<path id="Vector" d="M3.82 1.95C4.5 1.95 5.16 2.22 5.66 2.71L7.04 1.28C6.17 0.45 5.01 -0.04 3.85 0C2.04 0 0.37 1.05 -0.42 2.74L1.17 4.02C1.5 2.82 2.58 1.95 3.82 1.95Z" fill="#EA4335" fill-opacity="1.000000" fill-rule="nonzero"/>
	</g>
</svg>
