<svg width="22.000000" height="22.000000" viewBox="-0.7 0 22 22" fill="none" xmlns="http://www.w3.org/2000/svg" xmlns:xlink="http://www.w3.org/1999/xlink">
	<desc>
			Created with Pixso.
	</desc>
	<defs/>
	<rect id="icon" width="22.000000" height="22.000000" transform="translate(-0.857910 0.000000)" fill="#FFFFFF" fill-opacity="0"/>
	<path id="icon" d="M-0.86 9.6C-0.86 6.23 -0.86 4.55 -0.21 3.27C0.37 2.14 1.28 1.22 2.41 0.65C3.7 0 5.38 0 8.74 0L11.54 0C14.9 0 16.58 0 17.86 0.65C18.99 1.22 19.91 2.14 20.48 3.27C21.14 4.55 21.14 6.23 21.14 9.6L21.14 12.39C21.14 15.76 21.14 17.44 20.48 18.72C19.91 19.85 18.99 20.77 17.86 21.34C16.58 22 14.9 22 11.54 22L8.74 22C5.38 22 3.7 22 2.41 21.34C1.28 20.77 0.37 19.85 -0.21 18.72C-0.86 17.44 -0.86 15.76 -0.86 12.39L-0.86 9.6ZM8.74 2L11.54 2C13.25 2 14.41 2 15.31 2.07C16.19 2.14 16.64 2.27 16.95 2.43C17.71 2.81 18.32 3.43 18.7 4.18C18.86 4.49 18.99 4.94 19.06 5.82C19.14 6.72 19.14 7.88 19.14 9.6L19.14 12.39C19.14 14.11 19.14 15.27 19.06 16.17C18.99 17.05 18.86 17.5 18.7 17.81C18.32 18.56 17.71 19.18 16.95 19.56C16.64 19.72 16.19 19.85 15.31 19.92C14.41 19.99 13.25 20 11.54 20L8.74 20C7.02 20 5.86 19.99 4.96 19.92C4.08 19.85 3.63 19.72 3.32 19.56C2.57 19.18 1.96 18.56 1.57 17.81C1.41 17.5 1.28 17.05 1.21 16.17C1.14 15.27 1.14 14.11 1.14 12.39L1.14 9.6C1.14 7.88 1.14 6.72 1.21 5.82C1.28 4.94 1.41 4.49 1.57 4.18C1.96 3.43 2.57 2.81 3.32 2.43C3.63 2.27 4.08 2.14 4.96 2.07C5.86 2 7.02 2 8.74 2ZM16.14 4C15.58 4 15.14 4.44 15.14 5C15.14 5.55 15.58 6 16.14 6C16.69 6 17.14 5.55 17.14 5C17.14 4.44 16.69 4 16.14 4ZM10.14 17C13.45 17 16.14 14.31 16.14 11C16.14 7.68 13.45 5 10.14 5C6.82 5 4.14 7.68 4.14 11C4.14 14.31 6.82 17 10.14 17ZM10.14 15C12.35 15 14.14 13.2 14.14 11C14.14 8.79 12.35 7 10.14 7C7.93 7 6.14 8.79 6.14 11C6.14 13.2 7.93 15 10.14 15Z" fill="#0F0F0F" fill-opacity="1.000000" fill-rule="evenodd"/>
</svg>
