<svg width="22.000000" height="16.000000" viewBox="-0.8 0 22 16" fill="none" xmlns="http://www.w3.org/2000/svg" xmlns:xlink="http://www.w3.org/1999/xlink">
	<desc>
			Created with Pixso.
	</desc>
	<defs/>
	<path id="icon" d="M18.14 0C19.79 0 21.14 1.34 21.14 3L21.14 13C21.14 14.65 19.79 16 18.14 16L2.14 16C0.48 16 -0.86 14.65 -0.86 13L-0.86 3C-0.86 1.34 0.48 0 2.14 0L18.14 0ZM17.39 2L2.88 2L9.52 7.23C9.88 7.52 10.39 7.52 10.76 7.23L17.39 2ZM1.14 3.16L1.14 13C1.14 13.55 1.58 14 2.14 14L18.14 14C18.69 14 19.14 13.55 19.14 13L19.14 3.16L12 8.8C10.91 9.66 9.37 9.66 8.28 8.8L1.14 3.16Z" fill="#151618" fill-opacity="1.000000" fill-rule="evenodd"/>
</svg>
