<svg width="26.000000" height="20.000000" viewBox="-1 0 26 20" fill="none" xmlns="http://www.w3.org/2000/svg" xmlns:xlink="http://www.w3.org/1999/xlink">
	<desc>
			Created with Pixso.
	</desc>
	<defs>
		<clipPath id="clip2_950">
			<rect id="logos:mastercard" overflow= "visible" width="26.000000" height="20.000000" transform="translate(-0.971191 0.000000)" fill="white" fill-opacity="0"/>
		</clipPath>
	</defs>
	<rect id="logos:mastercard" width="26.000000" height="20.000000" transform="translate(-0.971191 0.000000)" fill="#FFFFFF" fill-opacity="0"/>
	<g clip-path="url(#clip2_950)">
		<path id="Vector" d="M3.75 19.9L3.75 18.57C3.75 18.06 3.44 17.73 2.9 17.73C2.64 17.73 2.35 17.82 2.14 18.11C1.99 17.87 1.77 17.73 1.43 17.73C1.21 17.73 0.99 17.8 0.81 18.04L0.81 17.78L0.34 17.78L0.34 19.9L0.81 19.9L0.81 18.73C0.81 18.35 1.01 18.17 1.32 18.17C1.63 18.17 1.79 18.37 1.79 18.73L1.79 19.9L2.26 19.9L2.26 18.73C2.26 18.35 2.48 18.17 2.77 18.17C3.08 18.17 3.24 18.37 3.24 18.73L3.24 19.9L3.75 19.9ZM10.68 17.78L9.93 17.78L9.93 17.14L9.46 17.14L9.46 17.78L9.03 17.78L9.03 18.2L9.46 18.2L9.46 19.17C9.46 19.65 9.66 19.94 10.19 19.94C10.39 19.94 10.62 19.87 10.77 19.79L10.64 19.39C10.51 19.48 10.35 19.5 10.24 19.5C10.02 19.5 9.93 19.37 9.93 19.15L9.93 18.2L10.68 18.2L10.68 17.78ZM14.65 17.73C14.39 17.73 14.21 17.87 14.1 18.04L14.1 17.78L13.63 17.78L13.63 19.9L14.1 19.9L14.1 18.7C14.1 18.35 14.25 18.15 14.54 18.15C14.63 18.15 14.74 18.17 14.83 18.2L14.97 17.76C14.88 17.73 14.74 17.73 14.65 17.73L14.65 17.73ZM8.66 17.95C8.43 17.8 8.12 17.73 7.79 17.73C7.25 17.73 6.89 18 6.89 18.42C6.89 18.77 7.16 18.97 7.63 19.04L7.85 19.06C8.1 19.1 8.23 19.17 8.23 19.28C8.23 19.43 8.05 19.54 7.74 19.54C7.43 19.54 7.18 19.43 7.03 19.32L6.81 19.68C7.05 19.85 7.38 19.94 7.72 19.94C8.34 19.94 8.7 19.65 8.7 19.26C8.7 18.88 8.41 18.68 7.96 18.62L7.74 18.59C7.54 18.57 7.38 18.53 7.38 18.4C7.38 18.24 7.54 18.15 7.79 18.15C8.05 18.15 8.32 18.26 8.45 18.33L8.66 17.95ZM21.1 17.73C20.83 17.73 20.65 17.87 20.54 18.04L20.54 17.78L20.07 17.78L20.07 19.9L20.54 19.9L20.54 18.7C20.54 18.35 20.7 18.15 20.98 18.15C21.07 18.15 21.19 18.17 21.27 18.2L21.41 17.76C21.32 17.73 21.19 17.73 21.1 17.73ZM15.12 18.84C15.12 19.48 15.57 19.94 16.26 19.94C16.57 19.94 16.79 19.87 17.02 19.7L16.79 19.32C16.62 19.45 16.44 19.52 16.24 19.52C15.86 19.52 15.59 19.26 15.59 18.84C15.59 18.44 15.86 18.17 16.24 18.15C16.44 18.15 16.62 18.22 16.79 18.35L17.02 17.98C16.79 17.8 16.57 17.73 16.26 17.73C15.57 17.73 15.12 18.2 15.12 18.84ZM19.45 18.84L19.45 17.78L18.98 17.78L18.98 18.04C18.82 17.84 18.6 17.73 18.31 17.73C17.71 17.73 17.24 18.2 17.24 18.84C17.24 19.48 17.71 19.94 18.31 19.94C18.62 19.94 18.84 19.83 18.98 19.63L18.98 19.9L19.45 19.9L19.45 18.84ZM17.73 18.84C17.73 18.46 17.98 18.15 18.38 18.15C18.76 18.15 19.02 18.44 19.02 18.84C19.02 19.21 18.76 19.52 18.38 19.52C17.98 19.5 17.73 19.21 17.73 18.84ZM12.13 17.73C11.51 17.73 11.06 18.17 11.06 18.84C11.06 19.5 11.51 19.94 12.16 19.94C12.47 19.94 12.78 19.85 13.03 19.65L12.8 19.32C12.62 19.45 12.4 19.54 12.18 19.54C11.89 19.54 11.6 19.41 11.53 19.04L13.11 19.04L13.11 18.86C13.14 18.17 12.74 17.73 12.13 17.73ZM12.13 18.13C12.42 18.13 12.62 18.31 12.67 18.64L11.55 18.64C11.6 18.35 11.8 18.13 12.13 18.13ZM23.75 18.84L23.75 16.94L23.28 16.94L23.28 18.04C23.13 17.84 22.9 17.73 22.61 17.73C22.01 17.73 21.54 18.2 21.54 18.84C21.54 19.48 22.01 19.94 22.61 19.94C22.92 19.94 23.15 19.83 23.28 19.63L23.28 19.9L23.75 19.9L23.75 18.84ZM22.03 18.84C22.03 18.46 22.28 18.15 22.68 18.15C23.06 18.15 23.33 18.44 23.33 18.84C23.33 19.21 23.06 19.52 22.68 19.52C22.28 19.5 22.03 19.21 22.03 18.84ZM6.38 18.84L6.38 17.78L5.91 17.78L5.91 18.04C5.76 17.84 5.53 17.73 5.24 17.73C4.64 17.73 4.17 18.2 4.17 18.84C4.17 19.48 4.64 19.94 5.24 19.94C5.56 19.94 5.78 19.83 5.91 19.63L5.91 19.9L6.38 19.9L6.38 18.84ZM4.64 18.84C4.64 18.46 4.89 18.15 5.29 18.15C5.67 18.15 5.94 18.44 5.94 18.84C5.94 19.21 5.67 19.52 5.29 19.52C4.89 19.5 4.64 19.21 4.64 18.84Z" fill="#151618" fill-opacity="1.000000" fill-rule="nonzero"/>
		<path id="Vector" d="M8.5 1.69L15.52 1.69L15.52 14.18L8.5 14.18L8.5 1.69Z" fill="#FF5F00" fill-opacity="1.000000" fill-rule="nonzero"/>
		<path id="Vector" d="M8.95 7.94C8.95 5.4 10.15 3.15 12 1.69C10.64 0.63 8.92 0 7.05 0C2.61 0 -0.98 3.55 -0.98 7.94C-0.98 12.33 2.61 15.88 7.05 15.88C8.92 15.88 10.64 15.24 12 14.18C10.15 12.75 8.95 10.47 8.95 7.94Z" fill="#EB001B" fill-opacity="1.000000" fill-rule="nonzero"/>
		<path id="Vector" d="M25 7.94C25 12.33 21.41 15.88 16.97 15.88C15.1 15.88 13.38 15.24 12.02 14.18C13.89 12.73 15.08 10.47 15.08 7.94C15.08 5.4 13.87 3.15 12.02 1.69C13.38 0.63 15.1 0 16.97 0C21.41 0 25 3.57 25 7.94Z" fill="#F79E1B" fill-opacity="1.000000" fill-rule="nonzero"/>
	</g>
</svg>
