<svg width="10.000000" height="12.000000" viewBox="-1 0 10 12" fill="none" xmlns="http://www.w3.org/2000/svg" xmlns:xlink="http://www.w3.org/1999/xlink">
	<desc>
			Created with Pixso.
	</desc>
	<defs>
		<clipPath id="clip2_962">
			<rect id="logos:paypal" width="10.000000" height="12.000000" transform="translate(-0.971191 0.000000)" fill="white" fill-opacity="0"/>
		</clipPath>
	</defs>
	<rect id="logos:paypal" width="10.000000" height="12.000000" transform="translate(-0.971191 0.000000)" fill="#FFFFFF" fill-opacity="0"/>
	<g clip-path="url(#clip2_962)">
		<path id="Vector" d="M7.51 0.93C6.96 0.3 5.98 0.03 4.72 0.03L1.07 0.03C0.94 0.03 0.82 0.07 0.73 0.15C0.63 0.24 0.57 0.35 0.55 0.48L-0.97 10.29C-1 10.48 -0.85 10.66 -0.66 10.66L1.59 10.66L2.16 7L2.14 7.12C2.18 6.86 2.4 6.67 2.66 6.67L3.73 6.67C5.83 6.67 7.48 5.8 7.96 3.28C7.98 3.21 7.99 3.14 8 3.07C8.15 2.14 8 1.5 7.51 0.93Z" fill="#27346A" fill-opacity="1.000000" fill-rule="nonzero"/>
		<path id="Vector" d="M3.02 2.73C3.08 2.7 3.15 2.68 3.22 2.68L6.08 2.68C6.42 2.68 6.74 2.71 7.03 2.75C7.11 2.77 7.19 2.78 7.27 2.8C7.38 2.83 7.5 2.86 7.61 2.89C7.75 2.94 7.88 3 8 3.07C8.15 2.13 8 1.5 7.51 0.93C6.96 0.3 5.98 0.03 4.72 0.03L1.07 0.03C0.81 0.03 0.59 0.22 0.55 0.48L-0.97 10.29C-1 10.48 -0.85 10.66 -0.66 10.66L1.59 10.66L2.77 3.08C2.78 3 2.81 2.93 2.85 2.87C2.9 2.81 2.96 2.76 3.02 2.73Z" fill="#27346A" fill-opacity="1.000000" fill-rule="nonzero"/>
		<path id="Vector" d="M7.96 3.28C7.48 5.8 5.83 6.67 3.73 6.67L2.66 6.67C2.4 6.67 2.18 6.86 2.14 7.12L1.44 11.66C1.41 11.83 1.54 11.98 1.71 11.98L3.61 11.98C3.72 11.98 3.82 11.95 3.91 11.87C3.99 11.8 4.05 11.7 4.06 11.59L4.08 11.49L4.44 9.18L4.46 9.06C4.48 8.95 4.53 8.85 4.62 8.78C4.7 8.7 4.8 8.66 4.91 8.66L5.2 8.66C7.04 8.66 8.48 7.9 8.9 5.7C9.08 4.78 8.99 4.01 8.52 3.47C8.38 3.31 8.21 3.18 8 3.07C7.99 3.14 7.98 3.21 7.96 3.28Z" fill="#2790C3" fill-opacity="1.000000" fill-rule="nonzero"/>
		<path id="Vector" d="M7.5 2.86C7.42 2.84 7.35 2.82 7.27 2.8C7.19 2.78 7.11 2.77 7.03 2.76C6.74 2.71 6.42 2.68 6.08 2.68L3.22 2.68C3.15 2.68 3.09 2.7 3.02 2.73C2.96 2.76 2.9 2.81 2.85 2.87C2.81 2.93 2.78 3 2.77 3.08L2.16 7L2.14 7.12C2.18 6.86 2.4 6.67 2.66 6.67L3.73 6.67C5.84 6.67 7.48 5.8 7.97 3.28C7.98 3.21 7.99 3.14 8 3.07C7.88 3 7.75 2.94 7.61 2.9C7.57 2.88 7.53 2.87 7.5 2.86L7.5 2.86Z" fill="#1F264F" fill-opacity="1.000000" fill-rule="nonzero"/>
	</g>
</svg>
