<svg width="21.000000" height="21.000000" viewBox="-0.5 0 21 21" fill="none" xmlns="http://www.w3.org/2000/svg" xmlns:xlink="http://www.w3.org/1999/xlink">
	<desc>
			Created with Pixso.
	</desc>
	<defs/>
	<path id="icon" d="M14.9 20.72C12.88 20.21 8.75 18.79 5 15.04C1.25 11.29 -0.18 7.15 -0.69 5.13C-0.98 3.97 -0.45 2.85 0.43 2.22L2.76 0.55C4.13 -0.42 6.02 -0.09 6.97 1.29L8.44 3.4C9.06 4.3 8.85 5.54 7.96 6.17L6.79 7.01C6.97 7.68 7.52 9.07 9.24 10.79C10.96 12.52 12.35 13.07 13.03 13.24L13.86 12.08C14.5 11.19 15.73 10.97 16.63 11.59L18.75 13.06C20.12 14.01 20.45 15.91 19.48 17.27L17.82 19.6C17.18 20.49 16.06 21.01 14.9 20.72ZM6.41 13.62C9.82 17.03 13.58 18.33 15.39 18.78C15.65 18.85 15.97 18.74 16.19 18.44L17.85 16.11C18.18 15.65 18.07 15.02 17.61 14.7L15.49 13.24L14.59 14.49C14.23 15.01 13.55 15.41 12.76 15.24C11.78 15.03 9.96 14.34 7.82 12.21C5.69 10.07 5.01 8.25 4.8 7.27C4.63 6.48 5.03 5.81 5.54 5.44L6.79 4.54L5.33 2.43C5.01 1.97 4.38 1.86 3.93 2.18L1.6 3.84C1.29 4.06 1.19 4.38 1.25 4.65C1.71 6.45 3 10.21 6.41 13.62Z" fill="#151618" fill-opacity="1.000000" fill-rule="evenodd"/>
</svg>
