<svg width="60.000000" height="60.000000" viewBox="-1 0 60 60" fill="none" xmlns="http://www.w3.org/2000/svg" xmlns:xlink="http://www.w3.org/1999/xlink">
	<desc>
			Created with Pixso.
	</desc>
	<defs/>
	<path id="Vector" d="M24.84 -0.85L24.82 -0.87L24.79 -0.84C10.45 0.69 -0.72 12.83 -0.72 27.59C-0.72 34.2 1.52 40.28 5.29 45.13L5.29 45.13L5.29 45.13C7.67 48.2 10.65 50.75 14.05 52.63C17.45 54.5 21.19 55.67 25.05 56.04C25.18 54.68 25.52 53.26 26.01 51.82C19.85 51.36 14.1 48.56 9.93 44C10.09 43.31 10.16 42.51 10.22 41.82L10.25 41.48C10.3 40.86 10.35 40.25 10.43 39.64C10.63 38.13 10.97 37.12 11.5 36.56C12.19 35.82 12.89 35.7 14.36 35.44L14.63 35.39C15.38 35.26 16.39 35.05 17.36 34.53C18.39 33.96 19.27 33.1 19.93 31.82C20.6 30.54 20.55 29.22 20.37 28.18C20.2 27.34 19.98 26.52 19.71 25.71C19.66 25.57 19.62 25.43 19.58 25.29C18.99 23.38 18.92 22.45 19.4 21.72C19.93 20.91 20.65 20.73 22.52 20.25L22.76 20.19C24.67 19.69 27.24 18.87 28.73 15.69C30.35 12.24 29.44 8.36 28.45 5.72C28.13 4.89 27.78 4.08 27.38 3.29C27.53 3.29 27.68 3.29 27.83 3.29C32.42 3.28 36.91 4.58 40.78 7.03C40.24 7.76 39.5 8.72 38.68 9.75C36.88 12 34.86 14.31 33.47 15.35C32.84 15.82 32.35 16.46 32.09 17.2C31.86 17.88 31.8 18.6 31.93 19.3C32.13 20.49 32.76 21.61 33.32 22.46C33.79 23.17 34.33 23.89 34.79 24.49L35.11 24.9C35.37 25.26 35.59 25.55 35.76 25.81C35.84 25.93 35.9 26.03 35.94 26.11C35.98 26.18 35.99 26.22 36 26.22C36.11 26.53 36.23 27.05 36.38 27.76L36.44 28.06C37.71 27.5 39.08 27.06 40.55 26.79C40.42 26.09 40.24 25.41 40.01 24.73C39.7 23.89 39.02 22.97 38.53 22.32C38.4 22.16 38.28 22 38.15 21.84C37.72 21.27 37.3 20.7 36.9 20.11C36.46 19.43 36.24 18.97 36.17 18.68C38.03 17.25 40.31 14.58 42.03 12.43C42.87 11.37 43.63 10.39 44.19 9.63C48.9 13.92 51.73 19.9 52.07 26.26C53.73 26.4 55.15 26.61 56.38 26.87C56 11.41 43.37 -1 27.83 -1C26.82 -1 25.82 -0.95 24.84 -0.85ZM6.24 38.68C4.53 35.36 3.62 31.69 3.56 27.96C3.51 24.22 4.31 20.53 5.91 17.16C7.51 13.78 9.87 10.83 12.79 8.51C15.72 6.2 19.14 4.59 22.79 3.81C23.44 4.9 23.99 6.05 24.44 7.23C25.34 9.62 25.7 12.07 24.86 13.86C24.21 15.23 23.3 15.62 21.69 16.03L21.23 16.15C19.71 16.52 17.32 17.09 15.83 19.36C14.11 21.96 14.95 24.82 15.48 26.55L15.65 27.1C15.88 27.82 16.05 28.38 16.14 28.91C16.25 29.53 16.17 29.76 16.13 29.84C15.85 30.39 15.56 30.62 15.31 30.76C15 30.93 14.59 31.04 13.88 31.17C13.76 31.19 13.64 31.21 13.51 31.23C12.18 31.45 10.08 31.79 8.37 33.63C6.98 35.12 6.48 37.09 6.24 38.68ZM27.85 56.76C28.03 54 29.27 50.64 31.38 47.47C32.06 46.31 32.9 45.13 33.91 43.99C37.29 40.13 41.77 37.39 46.74 36.12C47.11 36.03 47.43 35.8 47.62 35.47C47.82 35.15 47.87 34.76 47.78 34.39C47.69 34.02 47.46 33.7 47.13 33.51C46.81 33.31 46.42 33.26 46.05 33.35C40.51 34.75 35.53 37.8 31.76 42.1C31 42.97 30.3 43.88 29.69 44.8C29.4 43.85 29.26 42.87 29.26 41.88C29.26 39.26 30.6 36.41 32.71 34.15C35.12 31.59 38.34 29.94 41.83 29.48C49.83 28.43 54.79 29.31 57.72 30.13C58.11 30.24 58.47 30.47 58.74 30.77C59.01 31.08 59.19 31.46 59.25 31.87C59.32 32.27 59.26 32.69 59.1 33.06C58.93 33.44 58.66 33.76 58.32 33.99C58.16 34.09 57.89 34.36 57.58 34.96C57.2 35.72 56.9 36.5 56.66 37.32C56.41 38.13 56.18 39.01 55.92 39.96L55.76 40.57C55.44 41.74 55.09 43 54.66 44.24C53.83 46.71 52.65 49.34 50.68 51.36C48.62 53.45 45.84 54.76 42.11 54.76C38.32 54.76 35.67 53.22 33.97 51.45C32.82 53.56 32.22 55.55 32.13 57.02C32.09 57.58 31.82 58.1 31.4 58.47C30.98 58.84 30.42 59.03 29.86 58.99C29.3 58.96 28.78 58.71 28.4 58.29C28.03 57.87 27.83 57.32 27.85 56.76Z" fill="#754E29" fill-opacity="1.000000" fill-rule="nonzero"/>
</svg>
