<svg width="22.000000" height="18.000000" viewBox="-0.7 0 22 18" fill="none" xmlns="http://www.w3.org/2000/svg" xmlns:xlink="http://www.w3.org/1999/xlink">
	<desc>
			Created with Pixso.
	</desc>
	<defs/>
	<rect id="icon" width="22.000069" height="18.000000" transform="translate(-0.857422 0.000000)" fill="#FFFFFF" fill-opacity="0"/>
	<path id="icon" d="M17.92 1.2C18.27 1.12 18.51 1.04 18.71 0.96C18.99 0.84 19.22 0.7 19.59 0.47C19.89 0.28 20.29 0.26 20.61 0.43C20.94 0.6 21.14 0.92 21.14 1.28C21.14 2.32 21 3.17 20.69 3.93C20.43 4.56 20.06 5.07 19.62 5.54C19.43 8.78 18.46 11.33 16.97 13.26C15.43 15.26 13.38 16.54 11.21 17.26C9.06 17.97 6.78 18.13 4.73 17.89C2.71 17.65 0.83 17 -0.48 16.02C-0.83 15.75 -0.96 15.29 -0.78 14.88C-0.61 14.48 -0.17 14.24 0.28 14.31C1.57 14.48 2.8 14.2 3.82 13.8C3.62 13.69 3.43 13.58 3.26 13.46C2.33 12.84 1.58 12 1.24 11.35C1.1 11.08 1.1 10.77 1.24 10.5C1.31 10.36 1.41 10.24 1.54 10.15C0.18 9.07 -0.36 7.58 -0.36 6.58C-0.36 6.28 -0.22 6 0.02 5.82C0.12 5.74 0.24 5.69 0.36 5.65C0.26 5.37 0.18 5.08 0.12 4.8C-0.14 3.56 -0.12 2.16 0.17 1.04C0.27 0.66 0.6 0.38 1 0.32C1.4 0.27 1.8 0.45 2 0.79C3.08 2.6 5.07 3.7 6.92 4.35C7.79 4.66 8.59 4.85 9.2 4.97C9.33 3.79 9.67 2.82 10.19 2.05C10.88 1.04 11.84 0.43 12.88 0.16C14.66 -0.3 16.64 0.23 17.92 1.2ZM8.89 6.88C8.2 6.75 7.26 6.52 6.23 6.16C4.87 5.68 3.3 4.94 1.98 3.78C2 3.99 2.04 4.2 2.08 4.41C2.3 5.44 2.71 6.02 3.08 6.2C3.54 6.42 3.75 6.94 3.58 7.4C3.34 8.02 2.71 8.07 2.13 7.94C2.59 8.6 3.42 9.27 4.8 9.49C5.28 9.56 5.63 9.96 5.64 10.42C5.65 10.89 5.31 11.29 4.83 11.38L3.96 11.55C4.1 11.66 4.24 11.77 4.39 11.88C5.09 12.34 5.79 12.54 6.4 12.4C6.85 12.29 7.32 12.49 7.53 12.89C7.74 13.3 7.64 13.78 7.28 14.07C6.63 14.59 5.88 15 5.13 15.35C4.77 15.51 4.38 15.67 3.95 15.81C4.28 15.88 4.62 15.93 4.98 15.98C6.75 16.19 8.72 16.04 10.56 15.43C12.4 14.82 14.1 13.75 15.37 12.11C16.63 10.46 17.52 8.19 17.64 5.1C17.65 4.86 17.75 4.62 17.93 4.45C18.38 4.02 18.75 3.52 18.93 2.93C18.62 3.03 18.25 3.11 17.83 3.19C17.5 3.25 17.16 3.15 16.93 2.92C16.17 2.19 14.65 1.7 13.4 2.03C12.81 2.18 12.27 2.51 11.87 3.11C11.45 3.72 11.14 4.66 11.14 6.1C11.14 6.37 11.02 6.63 10.81 6.81C10.31 7.25 9.47 6.99 8.89 6.88Z" fill="#0F0F0F" fill-opacity="1.000000" fill-rule="evenodd"/>
</svg>
